<svg width="110" height="24" fill="none" xmlns="http://www.w3.org/2000/svg"><g style="mix-blend-mode:luminosity"><path d="M10.289 1.97C5.194 3.681 2.04 6.76 0 10.606.996 5.082 4.315 1.742 9.625.259c.133-.032.249-.065.382-.081 1.958-.342 2.555.228 1.477 1.14a3.697 3.697 0 01-1.195.652z" fill="url(#paint0_linear_110_14397)"/><path d="M1.925 19.063c-1.676-2.38-2.041-4.954-.53-7.821.995-1.76 2.24-3.243 3.766-4.416 1.112-.863 2.373-1.499 3.717-1.971C13.31 3.29 15.151 1.678 13.708 0c1.676.114 2.97.602 2.837 2.378-.73 2.917-3.302 4.758-6.887 6.045-1.029.375-2.024.831-2.954 1.434-3.55 2.265-5.243 5.295-4.779 9.206z" fill="url(#paint1_linear_110_14397)"/><path d="M13.673 13.736c-5.095 2.248-8.33 3.943-7.518 8.961C2.24 19.781 3.583 13.9 8.412 11.39c8.132-3.699 11.351-7.202 9.51-10.086 3.716 3.096 3.733 6.306.049 9.646a15.143 15.143 0 01-4.298 2.786z" fill="url(#paint2_linear_110_14397)"/><path d="M18.403 17.678C12.61 22.012 9.558 21.23 10.553 24c-5.957-1.303-2.107-5.311 3.635-8.228 1.526-.782 3.003-1.564 4.364-2.59 4.165-3.113 3.916-7.088 2.854-8.913 4.182 4.09 2.058 9.45-3.003 13.41z" fill="url(#paint3_linear_110_14397)"/><path d="M14.27 21.93c5.094-1.71 8.247-4.79 10.288-8.636-.995 5.508-4.314 8.864-9.625 10.347-.133.032-.249.065-.381.081-1.959.342-2.556-.228-1.477-1.14a4.036 4.036 0 011.194-.652z" fill="url(#paint4_linear_110_14397)"/><path d="M37.07 6.144c1.232.607 1.395 1.741 1.273 2.414-.23 1.411-1.205 2.268-3.208 2.268h-3.682V2.03h3.628c1.719 0 2.977 1.002 2.937 2.677-.027.41-.284 1.108-.948 1.438zm-1.99-.673c1.11 0 1.151-1.57 0-1.57h-1.326v1.57h1.327zm0 3.403c1.381 0 1.354-1.807 0-1.807h-1.326v1.807h1.327zm6.592-.989c0 1.411 2.572 1.411 2.586 0V2.03h2.314v5.856c-.013 4.129-7.214 4.129-7.2 0V2.03h2.3v5.856zm7.258.157c.906 1.069 2.896 1.122 2.963.172.027-.501-.798-.778-1.543-.884-1.448-.224-2.775-1.12-2.775-2.796 0-1.728 1.611-2.638 3.263-2.638 1.096 0 2.152.303 3.086 1.398l-1.49 1.121c-.947-.976-2.557-.95-2.598.08.027.421.5.672 1.205.817 1.61.29 3.208.831 3.113 2.994-.081 1.702-1.909 2.638-3.574 2.638-1.082 0-2.233-.54-3.072-1.596l1.421-1.306zm8.46 2.784h-2.288V2.03h2.287v8.797zm1.434-8.797h2.166l2.18 3.746.77 1.767.068-.013c-.013 0-.243-1.517-.257-1.517V2.03h2.274v8.797h-2.314l-2.044-3.469-.785-1.767-.068.013.298 1.702v3.521h-2.288V2.03zm10.922 3.456h3.655V7.41h-3.655v1.32h3.98v2.096h-6.28V2.03h6.28v2.084h-3.98v1.372zm6.199 2.557c.907 1.069 2.896 1.122 2.964.172.027-.501-.799-.778-1.543-.884-1.448-.224-2.775-1.12-2.775-2.796 0-1.728 1.61-2.638 3.262-2.638 1.097 0 2.152.303 3.086 1.398L79.45 4.415c-.947-.976-2.558-.95-2.598.08.027.421.5.672 1.204.817 1.611.29 3.208.831 3.113 2.994-.08 1.702-1.908 2.638-3.573 2.638-1.083 0-2.233-.54-3.073-1.596l1.422-1.306zm7.203 0c.907 1.069 2.896 1.122 2.964.172.027-.501-.798-.778-1.543-.884-1.448-.224-2.775-1.12-2.775-2.796 0-1.728 1.611-2.638 3.262-2.638 1.097 0 2.153.303 3.087 1.398l-1.49 1.121c-.947-.976-2.558-.95-2.598.08.027.421.5.672 1.204.817 1.611.29 3.208.831 3.114 2.994-.082 1.702-1.909 2.638-3.574 2.638-1.083 0-2.233-.54-3.072-1.596l1.42-1.306zm10.031.238h-3.98V6.17h3.98v2.11zm3.325-.752c0 1.411 2.572 1.411 2.586 0V1.67h2.314v5.857c-.013 4.128-7.214 4.128-7.2 0V1.67h2.314v5.857h-.014zm6.484-5.499h3.614c2.207 0 3.303 1.556 3.303 3.113 0 1.57-1.11 3.112-3.289 3.112h-1.34v2.572h-2.288V2.03zm3.601 4.247c1.38.013 1.38-2.19 0-2.176h-1.327v2.176h1.327zM31.453 20.033V14.51h1.967c.887 0 1.62.263 2.179.79.559.526.848 1.183.848 1.972 0 .79-.289 1.447-.848 1.973-.56.526-1.292.79-2.16.79h-1.986zm.636-.563h1.33c.714 0 1.274-.207 1.717-.62.424-.414.636-.94.636-1.56 0-.62-.212-1.146-.655-1.56-.424-.413-1.003-.62-1.697-.62h-1.33v4.36zm5.611-4.416v-.658h.713v.676h-.714v-.018zm.038 4.979v-4.078h.617v4.078h-.617zm3.934 1.278a3.35 3.35 0 01-1.909-.563l.29-.47a2.687 2.687 0 001.62.526c.462 0 .848-.131 1.117-.376.27-.244.406-.601.406-1.07v-.49c-.444.583-.984.865-1.64.865-.52 0-.983-.17-1.388-.526-.386-.357-.578-.827-.578-1.39 0-.583.192-1.034.597-1.391a1.95 1.95 0 011.37-.526c.674 0 1.214.282 1.639.827v-.733h.617v3.382c0 .62-.174 1.09-.54 1.447-.367.32-.907.488-1.6.488zm0-2.123c.405 0 .772-.131 1.08-.394.308-.264.463-.602.463-.996 0-.395-.155-.733-.463-.996a1.625 1.625 0 00-1.08-.395c-.405 0-.752.132-1.041.376a1.34 1.34 0 00-.424 1.015c0 .394.135.733.424.996.29.263.636.394 1.041.394zm3.547-4.134v-.658h.713v.676h-.713v-.018zm.038 4.979v-4.078h.617v4.078h-.617zm3.474.076c-.366 0-.656-.094-.868-.282-.212-.188-.328-.47-.328-.864V16.5h-.578v-.545h.578v-1.24h.618v1.24h1.33v.545h-1.33v2.387c0 .45.23.676.713.676.212 0 .405-.056.617-.15v.526a1.632 1.632 0 01-.752.169zm3.124.018c-.424 0-.79-.113-1.1-.338-.308-.226-.462-.545-.462-.94 0-.432.154-.751.482-.996.328-.225.752-.357 1.311-.357.424 0 .868.057 1.273.17v-.132c0-.357-.116-.639-.328-.827-.212-.188-.52-.282-.925-.282s-.83.094-1.273.3l-.193-.488c.52-.225 1.022-.357 1.523-.357.598 0 1.042.15 1.35.451.29.282.444.677.444 1.203v2.499h-.598v-.601c-.367.47-.868.695-1.504.695zm.116-.489c.385 0 .713-.094.983-.3.27-.207.405-.47.405-.79v-.375a4.513 4.513 0 00-1.215-.17c-.386 0-.675.076-.906.226a.728.728 0 00-.328.62.7.7 0 00.309.601c.212.113.462.188.752.188zm3.392.396v-5.769h.617v5.769h-.617zm5.75.093a1.82 1.82 0 01-1.1-.338c-.308-.226-.462-.545-.462-.94 0-.432.154-.751.482-.996.328-.225.752-.357 1.311-.357.424 0 .868.057 1.273.17v-.132c0-.357-.116-.639-.328-.827-.212-.188-.52-.282-.926-.282-.405 0-.829.094-1.272.3l-.193-.488c.52-.225 1.022-.357 1.523-.357.598 0 1.041.15 1.35.451.29.282.444.677.444 1.203v2.499h-.598v-.601c-.367.47-.868.695-1.504.695zm.115-.489c.386 0 .714-.094.984-.3.27-.207.405-.47.405-.79v-.375a4.513 4.513 0 00-1.215-.17c-.386 0-.675.076-.906.226a.728.728 0 00-.328.62.7.7 0 00.308.601c.212.113.463.188.752.188zm5.182 1.673c-.713 0-1.35-.188-1.908-.563l.289-.47a2.687 2.687 0 001.62.526c.462 0 .848-.131 1.118-.376.27-.244.405-.601.405-1.07v-.49c-.444.583-.983.865-1.64.865-.52 0-.983-.17-1.387-.526-.386-.357-.579-.827-.579-1.39 0-.583.193-1.034.598-1.391a1.95 1.95 0 011.369-.526c.675 0 1.215.282 1.639.827v-.733h.617v3.382c0 .62-.174 1.09-.54 1.447-.366.32-.906.488-1.6.488zm0-2.123c.406 0 .772-.131 1.08-.394.309-.264.463-.602.463-.996a1.26 1.26 0 00-.463-.996 1.626 1.626 0 00-1.08-.395c-.404 0-.751.132-1.04.376a1.34 1.34 0 00-.425 1.015c0 .394.135.733.424.996.29.263.637.394 1.042.394zm3.898-.938c.039.412.212.75.482.995.27.244.617.376.984.376.501 0 .945-.188 1.33-.583l.386.338a2.26 2.26 0 01-1.736.77c-.597 0-1.08-.206-1.484-.6-.405-.395-.598-.902-.598-1.541 0-.601.193-1.109.578-1.522.386-.413.868-.62 1.427-.62.598 0 1.08.207 1.427.62.347.413.52.92.52 1.54v.207h-3.316v.02zm0-.49h2.7a1.672 1.672 0 00-.405-.977c-.232-.263-.54-.394-.945-.394-.347 0-.656.131-.926.395-.231.244-.366.563-.424.977zm4.434 2.273v-4.078h.617v.714c.328-.526.81-.789 1.427-.789.501 0 .887.15 1.176.451.29.301.425.695.425 1.184v2.518h-.618v-2.386c0-.376-.096-.677-.308-.902-.212-.226-.482-.32-.848-.32-.367 0-.656.113-.907.357a1.29 1.29 0 00-.366.921v2.33h-.598zm6.887.094c-.598 0-1.119-.207-1.524-.62a2.088 2.088 0 01-.617-1.503c0-.583.212-1.09.617-1.504.405-.413.926-.62 1.524-.62.655 0 1.214.245 1.677.733l-.405.413c-.385-.394-.81-.6-1.292-.6-.424 0-.77.15-1.06.469-.29.3-.424.695-.424 1.127 0 .451.154.827.443 1.128.29.3.656.47 1.1.47.443 0 .867-.207 1.272-.62l.405.375c-.502.489-1.06.752-1.716.752zm3.389 1.203c-.309 0-.598-.075-.887-.207l.212-.489c.192.094.424.15.655.15a.716.716 0 00.482-.168c.135-.113.251-.32.386-.602l-1.909-4.077h.694l1.523 3.4 1.35-3.4h.656l-1.755 4.228c-.173.413-.366.714-.598.883a1.246 1.246 0 01-.81.282z" fill="#fff"/></g><defs><linearGradient id="paint0_linear_110_14397" x1="-.399" y1="10.213" x2="10.598" y2="-.987" gradientUnits="userSpaceOnUse"><stop stop-color="#CE2000"/><stop offset=".613" stop-color="#A61A00"/><stop offset="1" stop-color="#DD1500"/></linearGradient><linearGradient id="paint1_linear_110_14397" x1="-.411" y1="16.755" x2="15.654" y2=".392" gradientUnits="userSpaceOnUse"><stop stop-color="#CE2000"/><stop offset=".613" stop-color="#A61A00"/><stop offset="1" stop-color="#DD1500"/></linearGradient><linearGradient id="paint2_linear_110_14397" x1="3.62" y1="20.293" x2="20.163" y2="3.443" gradientUnits="userSpaceOnUse"><stop stop-color="#CE2000"/><stop offset=".613" stop-color="#A61A00"/><stop offset="1" stop-color="#DD1500"/></linearGradient><linearGradient id="paint3_linear_110_14397" x1="7.959" y1="22.788" x2="23.83" y2="6.624" gradientUnits="userSpaceOnUse"><stop stop-color="#CE2000"/><stop offset=".613" stop-color="#A61A00"/><stop offset="1" stop-color="#DD1500"/></linearGradient><linearGradient id="paint4_linear_110_14397" x1="13.751" y1="24.692" x2="24.748" y2="13.492" gradientUnits="userSpaceOnUse"><stop stop-color="#CE2000"/><stop offset=".613" stop-color="#A61A00"/><stop offset="1" stop-color="#DD1500"/></linearGradient></defs></svg>