<svg width="132" height="77" fill="none" xmlns="http://www.w3.org/2000/svg"><path d="M20.322 50.483H5.529C1.274 50.232-.525 46.731.132 39.976c.661-6.755 3.28-10.247 7.87-10.476l14.405.013-.511 5.11H9.17c-.948.009-1.645.344-2.081 1.006-1.019 2.596-1.425 5.194-1.213 7.795.11.829.609 1.358 1.5 1.587l13.487.031-.538 5.441h-.004zm1.005.044l1.287-13.162c.46-5.017 2.994-7.637 7.598-7.87l14.449.013-.512 5.128h-12.8c-1.089-.04-1.874.472-2.354 1.53l-.106 1.094 15.031-.014-.512 5.053-14.942-.013-.838 8.245h-6.31l.009-.004zm-2.443 5.705l-.569 5.785-10.471-.013-.715 6.923c-.009 1.225.618 1.904 1.883 2.028l12.425.013-.538 5.754H6.821C2.37 76.497.414 73.944.95 69.054l.733-7.098-1.68.03.582-5.754h18.298zm4.687.018h14.167c4.286.71 6.319 3.03 6.103 6.95-.058 2.87-1.2 5.145-3.418 6.82l2.862 6.733h-6.821l-2.773-6.442h-5.42l-.626 6.367-6.133.013 2.06-20.445v.004zm5.344 8.66l7.522.013c1.151-.017 1.808-.573 1.98-1.658.172-1.084-.352-1.72-1.57-1.905h-7.579l-.348 3.55h-.005z" fill="#fff"/><path d="M43.272 76.634l1.389-13.916c.643-4.184 3.17-6.37 7.58-6.556l6.922.013c4.012.274 5.895 2.439 5.652 6.5l-1.402 13.99h-5.432l.626-6.222-9.083-.044-.613 6.235h-5.639zm7.024-13.479l-.234 2.174h9.07l.19-1.707c.29-1.578-.168-2.46-1.372-2.645l-5.49.013c-1.459.04-2.182.758-2.16 2.16l-.004.005zm21.79 11.799L64.64 56.277h7.125l4.731 12.006 6.822-12.006h6.834L79.375 74.954c-.83 1.363-2.108 2.046-3.84 2.046-1.734 0-2.871-.679-3.449-2.046zm36.932 1.737h-14.4c-4.128-.242-5.874-3.646-5.235-10.216.64-6.565 3.193-9.96 7.66-10.185h14.003l-.498 4.965-12.412.013c-1.05-.04-1.68.225-1.883.79l-.498 1.75 14.559.013-.525 4.907-14.44-.057.013 1.155c.04.975.388 1.5 1.05 1.579l13.126-.014-.525 5.3h.005zm9.229-20.458l-1.288 12.69c-.009 1.225.617 1.904 1.883 2.028l12.429.013-.542 5.754H116.65c-4.449-.225-6.406-2.778-5.868-7.668l1.3-12.822h6.165v.005z" fill="#fff"/><path d="M78.222 36.538c.078 0 .547.168 1.04.372.496.204.938.371.984.373.166 0 .47-.29.442-.426-.023-.121-.055-.133-.41-.158-.41-.03-.796-.136-1.647-.456-.294-.11-.575-.202-.625-.202-.102 0-1.045.64-1.045.706 0 .055.005.055.598-.085.29-.069.59-.124.667-.124h-.004z" fill="#010101"/><path d="M116.104 45.774a88.624 88.624 0 01-2.121.962c-.115.035-.154-.009-.194-.223-.066-.354-.361-.612-.774-.691-.185-.035-1.057-.044-1.941-.018-1.14.03-1.725.013-2.016-.057l-.414-.096-.655.52c-.594.469-.858.617-.638.35.189-.227.814-1.57 1.038-2.239.423-1.229.7-2.886.489-2.886-.044 0-.194.056-.326.122-.132.07-.26.11-.277.087-.022-.021.11-.35.295-.739.317-.678.33-.721.286-1.307-.049-.691-.19-1.313-.313-1.387-.044-.026-.149.03-.229.131-.083.1-.167.162-.189.14-.022-.022 0-.367.053-.765.092-.709.088-.74-.114-1.255-.313-.783-.511-1.08-.647-.967-.093.074-.128.035-.198-.232-.049-.18-.119-.46-.163-.625-.15-.578-.445-.831-2.694-2.332-.453-.301-.809-.577-.796-.612.022-.057.999-.984 2.319-2.196.761-.7.805-.861.515-1.823-.154-.508-.238-.643-.647-1.046-.374-.367-.546-.625-.845-1.277-.55-1.198-.739-1.47-1.1-1.561-.317-.083-1.219-.18-3.398-.359-1.263-.105-1.355-.122-1.549-.31a.868.868 0 01-.123-.14l-.572-.635a.16.16 0 01-.049.014c-.066 0-.347-.184-.629-.403-.937-.744-1.33-.888-3.015-1.098a170.96 170.96 0 01-1.87-.24 314.34 314.34 0 00-6.078-.704l-1.377-.15-2.562.469c-3.952.717-4.383.796-4.555.8-.123.005-1.496-.205-2.83-.428l-1.782-.15c-.185-.008-.3-.056-.33-.152-.03-.092-.044-.18-.026-.193.013-.013.44-.122.941-.24.964-.228 1.488-.407 1.409-.486-.027-.026-.74 0-1.585.053-1.8.118-4.273.144-4.709.052-.264-.057-.325-.114-.462-.437-.347-.81-.484-1.312-.396-1.457.049-.074.198-.48.335-.9.184-.57.224-.788.154-.854-.058-.056-.665-.104-1.739-.13-1.624-.04-1.654-.044-1.976-.254-.343-.223-.669-.578-.669-.73 0-.053.159-.246.352-.434l.352-.34 1.022.213c.563.119 1.166.267 1.346.328.462.158 1.673.87 1.65.971-.03.132.159.202 1.651.63l2.944.844c3.93 1.137 4.502 1.29 4.564 1.234.035-.035-.114-.346-.335-.687-.22-.341-.387-.634-.37-.652.018-.017.476.31 1.026.73l.995.758h1.817c1 0 2.302.034 2.892.078.59.044 1.738.114 2.548.162l1.474.083L89.637 18l1.342-.608 1.206.136c1.373.153 1.487.175 1.487.306 0 .061-.448.153-1.333.271-3.204.424-3.728.503-3.79.569-.087.087.15.135 1.66.323.7.088 1.83.228 2.508.315.678.088 1.422.18 1.65.21.498.062.511.022.199-.542a13.36 13.36 0 01-.462-.997c-.282-.696-.159-.639-1.853-.88-1.43-.205-1.514-.2-2.025.027-1.206.542-2.24.993-2.257.975a16.942 16.942 0 01-.348-.652c-.185-.35-.414-.708-.506-.796-.097-.091-.585-.345-1.091-.568l-.916-.403-1.017.057-1.016.057-.33.315c-.198.188-.344.276-.366.219-.11-.298-.44-.626-.862-.849-1.276-.682-1.54-.94-2.1-2.03-.233-.454-.47-.883-.532-.948-.062-.07-.114-.158-.114-.197a.499.499 0 00-.075-.188c-.057-.092-.15-.044-.475.258-.22.205-.493.407-.608.45-.532.201-1.333 0-3.01-.756l-1.021-.46-.744.088c-1.276.149-1.795.503-1.382.945.247.262 1.351 1.11 1.87 1.434.67.416 2.113.893 2.914.963.603.052.73.087.995.297.352.276 1.377 1.32 1.377 1.404 0 .03-.339-.254-.757-.626-.616-.55-.805-.678-1.016-.682-.141 0-.634-.035-1.096-.07-.651-.048-.885-.04-1.052.044-.119.061-.233.11-.255.11-.022 0-.11-.158-.194-.346-.114-.258-.29-.442-.7-.73-1.293-.906-2.09-1.553-2.521-2.043-.361-.407-.586-.582-1.017-.779-.515-.236-.55-.271-.55-.507 0-.315.339-.74.59-.74.096 0 .391.106.65.228.432.21 1.132.394 2.003.525.458.07.44-.07-.044-.31-.21-.106-.43-.25-.488-.32-.247-.293.198-1.417.598-1.518.317-.078.744.022 1.37.328.351.175.637.267.73.237.097-.031.299.043.545.192.317.193.704.302 1.976.564.872.18 1.66.372 1.748.429.154.1.598 1.032 1.39 2.948.185.446.379.809.427.809.049 0 .203-.188.34-.415.316-.521.8-1.09.932-1.09.101 0 .26.22 1.197 1.645.383.586.612.853.801.94.26.123.282.123.863-.162.33-.157.647-.288.704-.288.092 0 1.461.442 1.822.59.084.035.127.145.123.307 0 .14 0 .441.013.673.022.507.176.486.176-.022 0-.192.035-.446.084-.564l.084-.219.171.17c.167.167.167.193.075.845-.053.372-.119.726-.145.792-.027.07 0 .118.061.118.058 0 .273-.236.48-.516l.37-.512-.115-.494a16.064 16.064 0 00-.154-.63c-.03-.1.075-.197.454-.385l.497-.25.568.29c.312.161.708.31.88.332.334.043.457-.04.682-.46.062-.113.211-.336.339-.494.14-.175.207-.332.18-.41-.044-.119-.066-.119-.255.008-.158.105-.3.122-.616.083a29.611 29.611 0 00-.924-.088c-.528-.039-.718-.153-.718-.433 0-.148.757-.524 1.197-.599.247-.04.357 0 .828.315.3.201.563.346.58.328.05-.048-.36-.56-.69-.87l-.247-.232-1.087.096c-.598.053-1.126.131-1.175.166-.048.04-.171.237-.281.433l-.199.363.194.36.194.358-.352.306c-.194.17-.396.31-.45.31-.052 0-.629-.118-1.271-.266a37.887 37.887 0 00-1.518-.324c-.436-.07-.99-.442-2.012-1.365-.686-.616-.884-.752-1.258-.857-.801-.219-1.285-.446-1.466-.678-.55-.708-.752-.927-1.175-1.264-.585-.463-.902-.577-2.16-.743-1.396-.184-1.85-.293-1.88-.447-.013-.07.19-.568.449-1.106.546-1.129.858-1.946.775-2.03-.07-.07-.251.162-.758 1.006a36.64 36.64 0 01-.475.779c-.035.057-.339.175-.677.258-.555.14-.647.144-.986.044l-.379-.114.233-.092c.313-.122.203-.201-.519-.354-.334-.07-.66-.175-.73-.228-.07-.052-.326-.34-.568-.638-.365-.446-.445-.6-.445-.844 0-.166.031-.32.066-.341.036-.022.357.135.709.354l.642.394.388-.154c.211-.083.647-.262.972-.398.322-.135.625-.244.678-.244.053 0 .317.179.59.402.33.267.546.385.638.354.264-.083.792-.717 1.017-1.22.21-.481.22-.525.123-.95a32.51 32.51 0 01-.22-1.154c-.066-.39-.154-.752-.198-.805-.137-.166-1.056-.568-1.712-.752-.872-.245-1.92-.25-2.438-.013-.546.25-.89.542-1.426 1.211-.26.328-.51.639-.555.692-.11.135-.233.122-.233-.027 0-.188.555-1.176.92-1.64.69-.875 1.316-1.085 2.781-.927.836.092 1.893.363 2.377.608.365.188.356.035-.018-.298C76.025.404 75.07.081 73.784.011c-1.051-.053-1.46.074-2.086.647-1.161 1.072-1.918 3.11-1.694 4.562.114.722.546 1.627.96 1.994.365.328.435.573.32 1.129-.114.547-.316.704-1.056.826-.316.053-.985.18-1.491.29-1.026.218-1.07.248-1.893 1.237-.453.551-.744.748-1.364.932-.308.091-.396.175-.709.66l-.796 1.229c-.374.573-.458.77-.55 1.308-.3 1.692.567 2.637 2.64 2.878.269.03.48.092.475.131-.026.175-.673 3.17-.7 3.25-.021.065-.21.048-.655-.057-1.488-.355-3.2-.473-4.027-.276-1.021.24-1.708 1.102-1.901 2.38-.176 1.163.04 1.732 1.074 2.878.162.179.294.34.374.446.273.179 1.06.651 1.958.861.057.057.506 1.955.506 2.135 0 .096-.167.647-.37 1.224-.202.578-.347 1.072-.325 1.098.026.026.572.236 1.219.473a32.87 32.87 0 011.201.454c.014.014-.096.346-.246.735-.15.39-.563 1.492-.915 2.45-.916 2.48-.841 2.37-.911 1.382-.07-1.05-.33-2.848-.533-3.705-.14-.603-.185-.792-.088-.853l-.898.04c.15.48.515 2.851.638 4.22.031.346.027.613-.017.608-.04 0-.986-.55-2.1-1.22l-2.028-1.216-.102-.74c-.162-1.215-.418-2.37-.611-2.772a1.787 1.787 0 01-.137-.35l-.418-.464c.027.092-.035.092-.207-.008-.132-.075-.26-.118-.286-.092-.026.026.062.393.203.818.303.94.435 1.942.594 4.426.132 2.117.211 3.88.163 3.639-.018-.088-.123-1.3-.233-2.69-.388-4.82-.59-5.795-1.387-6.617l-.365-.372-1.316.035c-1.61.043-2.324.1-2.27.183.021.035.461.127.976.202 1.083.161 2.196.385 2.504.503a.72.72 0 01.326.301c.467.919 1.149 5.503 1.338 9.006.048.914.132 1.876.18 2.134.102.551-.048.45 1.87 1.23 1.075.432 1.352.52 1.554.467.137-.03 1.034-.24 1.998-.463a60.294 60.294 0 002.231-.551c.265-.083.595-.17.736-.197l.26-.048v.595c0 .564-.01.599-.203.669-.225.083-2.223.617-2.663.708a27.97 27.97 0 00-1.074.276c-1.932.53-1.83.516-2.587.306-.375-.1-1.233-.332-1.91-.512-.678-.179-1.277-.363-1.33-.402-.132-.105-.228-.66-.422-2.476-.268-2.51-.854-6.919-1.043-7.872-.172-.858-.339-.98-1.954-1.43-1.263-.355-1.21-.368-1.637.533-.348.73-.366.752-.418.516-.062-.284-.014-.783.21-2.134.089-.538.142-.998.115-1.02-.171-.17-.55.578-.721 1.418-.154.748-.168 2.195-.027 2.375.145.183.784.616.907.616.057 0 .308-.275.559-.612.616-.84.611-.84.391-.188a2.497 2.497 0 01-.598 1.01c-.418.455-.502.74-.3.993.053.07.326.31.6.534.536.437 1.1.73 1.707.883.21.053.378.118.378.14 0 .026-.216.053-.475.061-.643.022-1.268.333-1.875.932-1.285 1.277-2.447 4.378-2.627 7.024-.058.853 0 1.72.114 1.72.035 0 .088-.294.119-.653.277-3.332 1.382-6.359 2.667-7.29.761-.556 1.51-.696 1.844-.346.273.284.669 1.128 1.03 2.196.184.542.365 1.04.405 1.106.11.193.088-.39-.049-1.238-.119-.739-.119-1.22 0-.664.031.153.203.848.374 1.544.172.695.317 1.32.317 1.386 0 .066-.053.35-.119.634-.066.285-.286 1.317-.488 2.296-.722 3.478-1.004 4.562-1.435 5.511-.475 1.046-1.096 1.531-1.963 1.531-.704 0-1.298-.25-1.795-.765-.458-.477-.493-.481-.264-.03.493.957 2.033 1.64 4.15 1.836 1.672.158 2.803-.079 4.651-.958.916-.433 1.611-.931 1.8-1.286.106-.196.036-.28-.123-.148-.066.052-.154.087-.198.07-.044-.014.207-.35.564-.74.396-.441.73-.905.88-1.22.255-.542.26-.516-.132-.756-.115-.07-.08-.15.246-.613.44-.625.366-.612 2.073-.42.563.062 1.83.175 2.817.245.986.075 1.84.158 1.892.188.114.062-2.777 2.144-3.446 2.485-.761.389-1.025.35-.832-.114.159-.376.01-.433-.493-.188-.695.345-2.618 1.57-2.618 1.666 0 .1.431.188.955.188.198 0 .933-.162 1.633-.363.7-.2 1.346-.385 1.434-.406.088-.022.696-.193 1.356-.381 1.743-.494 2.82-.748 3.195-.748.532 0 1.096.35 2.451 1.518.34.288.907.678 1.268.861.36.184 1.223.674 1.927 1.09.7.415 1.607.927 2.012 1.137.404.21.765.38.805.38.136 0 .709-.437 1.923-1.456 2.32-1.955 2.548-2.1 3.974-2.537a87.854 87.854 0 015.48-1.43c.224-.048.224-.027-.018.555-.216.516-.247.954-.097 1.382.123.363.3.38.757.088 1.25-.796 3.908-1.824 5.334-2.065 1.1-.183 2.803.18 6.311 1.352.77.258 1.452.468 1.518.468.132 0 3.825-3.035 5.017-4.125.819-.747 1.153-.936 1.646-.936.454 0 1.453.276 2.236.613.656.284.726.297 1.523.293.691 0 .933-.04 1.399-.21.726-.263 1.039-.464 1.866-1.207a31.198 31.198 0 011.814-1.444c.624-.459 1.122-.853 1.109-.866-.044-.043-.942.342-3.108 1.347l-.004.027zm-34.385-28.81c.08.096.036.179-.242.472-.303.32-.4.372-.915.472-.678.136-.78.079-.695-.372.04-.21-.005-.446-.172-.914-.123-.345-.207-.647-.185-.669.093-.092 2.029.788 2.21 1.006v.005zm-8.44-2.152c.1.06.255.245.343.415.193.372.154.46-.049.11a2.9 2.9 0 00-.312-.442l-.167-.188.184.109v-.004zm-.942-10.655c.043-.341.096-.634.118-.656.022-.022.55-.057 1.175-.074 1.22-.04 2.175.078 2.738.345l.29.136-.048.669c-.035.512-.08.691-.19.774-.233.175-.32.136-.906-.41-.497-.465-.59-.517-.797-.478-.22.044-1.1.73-1.104.862 0 .114-.3.061-.73-.131-.617-.271-.639-.31-.546-1.037zm-3.425 9.771c.375-.079.89-.219 1.15-.31.576-.202.65-.206.276-.01-.158.084-.567.224-.91.316-.344.087-.753.157-.907.153-.203-.005-.084-.048.391-.153v.004zM57.184 42.152s-.062-.324-.097-.76c-.03-.443-.04-.819-.017-.84.022-.023.066.323.096.76.031.442.04.818.018.84zm4.18-.345c-.012.62-.039 1.172-.056 1.224-.022.07-.26.1-.819.1h-.788l-.765-.769c-.493-.494-.731-.787-.67-.822a4.34 4.34 0 01.533-.17c.242-.066.876-.246 1.413-.403.537-.158 1.02-.289 1.078-.289.084 0 .097.24.08 1.129h-.005zm-8.792-5.013c-1.347-.686-1.62-.992-1.277-1.417l.141-.175.947.232.946.232.185.748c.1.41.184.774.184.805.01.126-.229.039-1.126-.425zm3.468 16.074c-.145 0-1.228-1.05-1.417-1.373-.207-.36-.29-.726-.163-.726.044 0 .413.34.818.76.581.6.748.823.788 1.05.026.158.013.289-.026.289zm1.166-1.981c-.467 0-1.382-.621-1.637-1.116-.123-.236-.159-1.019-.049-1.019.036 0 .11.096.163.215.154.336.85 1.167 1.307 1.561.374.324.396.359.216.359zm.937-1.693s-.224-.1-.462-.258c-.567-.376-1.263-1.093-1.523-1.579-.228-.416-.356-.936-.25-.997.096-.057 1.46.354 1.46.437 0 .04-.087.18-.197.306-.11.131-.198.28-.198.337 0 .057.246.306.55.551.497.403.554.481.603.81.03.196.04.375.026.393h-.009zm1.519-1.789c-.132-.315-.088-.415.088-.201.053.061.083.206.07.315-.022.184-.035.175-.158-.114zm44.159-23.194c.136.118.669 1.163.801 1.579.04.122.022.17-.07.17-.071 0-.141-.091-.168-.218-.088-.433-.523-1.168-.836-1.404-.171-.131-.312-.258-.317-.285-.009-.091.432.031.586.158h.004zm-18.392-1.15c.405.148.507.231.744.59.348.534.819 1.513.819 1.697 0 .146-.83-.05-2.487-.586-1.813-.586-1.971-.652-1.971-.818 0-.1-.07-.53-.159-.953-.088-.425-.145-.788-.132-.8.057-.058 2.412.581 3.19.87h-.004zm-10.364-1.899a.593.593 0 01.277 0c.075.022.014.035-.14.035-.154 0-.216-.017-.141-.035h.004zM62.58 25.847c-.489-.28-1.145-.897-1.43-1.343-.335-.52-.454-.901-.454-1.457 0-1.277.928-1.832 3.076-1.823.792 0 1.923.096 1.998.17.013.013-.101.652-.255 1.413s-.286 1.649-.295 1.977c-.009.555.013.643.361 1.364.207.425.33.77.277.766-.396-.03-2.891-.836-3.283-1.063l.005-.004zm1.918 5.58c-.237-.174-.47-.389-.519-.472-.167-.31-.22-.883-.14-1.46l.083-.578-.374-.818c-.502-1.093-.506-1.115-.273-1.067.105.022.788.083 1.523.136l1.333.096.251.442.25.441-.246.674a287.3 287.3 0 01-.7 1.898c-.25.674-.48 1.255-.514 1.295-.035.04-.102-.009-.154-.097-.049-.091-.286-.31-.524-.485l.004-.004zm1.55 3.797c-.097.088-.163.346-.23.914-.21 1.846-.241 2.401-.158 2.646.066.188.053.377-.048.818a8.498 8.498 0 01-.207.753c-.07.175-.101.179-1.356.179h-1.285l.058-.494c.03-.271.066-.503.074-.512.01-.009.396.079.863.197.466.118.867.192.898.162.03-.031.19-.866.356-1.86.29-1.727.616-3.608.96-5.563.158-.892.963-4.16 1.104-4.47.047-.105.075-.105.084 0 .018.298.15-.166.321-1.137.436-2.476.92-3.748 1.756-4.636.541-.578.933-.827 1.646-1.067.638-.215 1.127-.228.537-.018-.22.079-.524.206-.678.285-.37.188-1.355.927-1.355 1.019 0 .083.55.013 1.188-.15 1.378-.353 5.281-.323 6.712.053.374.097 1.038.617 1.307 1.024.198.297.268.332 1.32.673 1.259.412 1.624.433.898.057-.762-.393-1.184-.735-1.646-1.325-.247-.32-.643-.7-.929-.901-.47-.328-.559-.354-1.47-.49-.876-.131-.91-.14-.33-.105 1.32.079 3.754.363 4.102.473.198.065.554.161.796.218l.436.1.3.945c.162.521.299.971.299 1.002 0 .03-.414-.087-.92-.262-.506-.175-.964-.302-1.017-.285-.145.049.709.503 1.58.84.907.35 6.144 2.065 6.302 2.065.058 0 .106-.035.106-.08 0-.043-.22-.585-.489-1.206a97.849 97.849 0 01-.76-1.802c-.15-.372-.322-.718-.375-.774-.19-.193-1.923-.5-3.45-.613-.405-.03-.735-.078-.735-.11 0-.091 3.375-1.14 3.622-1.128.132.01.633.07 1.113.132 1.259.166 3.693.48 5.215.673 2.549.32 3.785.49 3.816.52.018.018-.088.263-.238.539-.15.28-.246.533-.21.564.043.044 1.02.149 1.777.184l.009.013.347.043c.04-.021.533.04 1.048.114.537.079 1.532.215 2.209.306.678.092 1.325.184 1.435.206.163.03.251.157.462.656.352.827.405 1.168.207 1.32-.242.189-1.012.57-1.589.788-.502.188-.537.193-.634.061-.057-.074-.343-.673-.638-1.325-.295-.652-.567-1.22-.603-1.26-.171-.196-.123.114.207 1.238.498 1.71.66 2.117.841 2.117.18 0 2.156-.673 3.455-1.18.189-.075.281-.097.264-.053h.008l.85.682.361.35.281.306.084.214c.026.044.009.276-.04.517-.105.507-.184.581-2.601 2.48-.796.625-1.465 1.185-1.492 1.246-.026.066-.158.11-.325.11-.282 0-.286.008-.638.76-.194.42-.357.81-.357.87 0 .075.101.11.317.11.176 0 .317.035.317.075 0 .039-.137.28-.304.533a17.47 17.47 0 00-.453.717.475.475 0 01-.233.219l-1.976 3.643c-.027.027-1.206-.026-2.619-.118-5.77-.363-5.862-.367-6.047-.197a2.622 2.622 0 00-.365.486c-.11.184-.247.337-.308.337-.19 0-.687-.486-.599-.586.088-.105.264-1.855.203-1.96-.022-.04-.145-.07-.269-.07-.281 0-.286-.017-.405-2.016-.114-1.92-.118-1.933-.514-2.069-.172-.061-.344-.153-.375-.205-.035-.053-.061-.337-.061-.626 0-.477-.022-.547-.212-.69-.29-.228-.426-.21-.43.052v1.775c.008 1.785.087 1.61-.859 1.85l-.58.145-.393-.394-.391-.393-.48-2.371c-.264-1.303-.524-2.393-.572-2.428-.053-.03-.07-.113-.044-.179.04-.105.154-.074.73.188.709.328 1.061.411.837.206-.066-.061-1.065-.744-2.227-1.518a415.864 415.864 0 01-2.707-1.815c-3.116-2.13-3.987-2.699-4.335-2.843-.594-.24-2.997-.227-4.423.022-1.25.218-1.91.393-2.099.555-.687.586-1.734 4.497-2.605 9.74-.124.74-.22 1.103-.317 1.186l-.014.013zm26.04 7.755c-.158 0-1.707.166-4.819.512-1.4.153-2.663.301-2.799.323l-.25.044-.058-.442c-.03-.24-.04-.459-.018-.48.035-.036.586-.123 3.525-.552.744-.11 2.051-.297 2.905-.424.854-.123 1.567-.215 1.58-.202.018.014.075.267.132.565.106.555.075.651-.198.656zm-8.454.144c-.198.197-.247.092-.194-.42.07-.704.137-.988.216-.988.11 0 .083 1.299-.027 1.408h.005zm-1.655-13.117c.286.066.515.14.51.158 0 .021-.03.17-.061.332l-.057.298h-.498c-.462 0-.884.148-.761.27.026.027.26.084.52.132.558.1.59.127.536.407-.035.17-.088.218-.25.218-.291 0-.806.149-.806.236 0 .075.11.114.537.202.304.06.348.113.286.34-.04.145-.101.171-.414.171-.312 0-.422-.052-.717-.306l-.348-.306.18-.66c.098-.363.243-.84.326-1.059.18-.498.476-1.491.476-1.61 0-.179-.172-.082-.66.368-.612.564-1.448 1.207-1.572 1.207-.048 0-.074-.061-.048-.14.022-.074.136-.494.255-.931.185-.696.418-1.387.467-1.387.101 0 2.689 1.107 2.808 1.203.066.052.07.14.017.289-.066.192-.11.21-.374.188-.348-.03-.805.065-.832.183-.008.044.212.136.498.202l-.018-.005zm-.238 3.32c0 .044-.017.079-.035.079-.017 0-.057-.035-.084-.08-.026-.043-.013-.078.036-.078.048 0 .083.035.083.079zm-4.255 19.966c-.524.302-1.25.455-1.466.306-.075-.052.07-.113.48-.214.321-.079.774-.21 1.008-.293.233-.083.435-.14.453-.122.017.017-.198.161-.475.323zm.475-11.428c.11.437.568 1.224.933 1.596.374.385.695.927.695 1.194 0 .114-.04.118-.413.022-.515-.131-.555-.131-.744 0-.145.105-.11.153.576.853.603.612.753.818.88 1.194.084.25.141.455.128.455-.013 0-.268-.206-.563-.46-.691-.59-.867-.695-1.254-.76a6.211 6.211 0 01-.458-.093c-.26-.074-.141.154.33.64.44.454.47.51.528.983.057.494.004 1.3-.11 1.728l-.062.223-.158-.354a43.98 43.98 0 01-.348-.818c-.176-.42-.242-.49-.735-.783-.308-.184-.572-.289-.607-.25-.035.04.075.534.242 1.098.392 1.308.493 2.17.3 2.489-.405.66-.564.884-.604.849-.022-.022-.088-.311-.145-.635-.075-.437-.176-.69-.37-.97a51.42 51.42 0 01-.32-.46c-.12-.175-.243.127-.529 1.264-.229.919-.33 1.19-.466 1.282-.163.105-.18.096-.308-.15-.172-.327-.26-.388-.511-.327-.264.061-.444.223-.559.507-.105.258-.202.28-.427.114-.083-.061-.766-.49-1.514-.945-1.21-.735-1.4-.883-1.69-1.286-.18-.249-.519-.673-.757-.936l-.43-.48.07-.731.07-.73-.365-.67-.366-.669.26-.468.26-.468-.41-.359c-.391-.34-.413-.384-.506-.922-.088-.512-.079-.626.07-1.177.093-.337.168-.744.168-.901 0-.254-.03-.302-.242-.376l-.242-.083.053-.525c.035-.35.236-.701.602-1.054.304-.293.55-.551.55-.573a3.99 3.99 0 00-.206-.464l-.207-.424.304-.455c.193-.289.312-.564.32-.743.01-.158.181-.635.384-1.059.29-.617.422-.81.664-.958a7.41 7.41 0 00.678-.52c.326-.289.378-.376.378-.635 0-.258.049-.34.313-.546a3.54 3.54 0 01.805-.429c.273-.1.528-.245.568-.315.123-.223.418-.162.52.105.048.131.145.236.21.236.067 0 .291-.227.498-.507.352-.477.4-.512.757-.56.405-.057 1.901.07 2.6.215.349.074.467.148.696.424.154.183.277.363.277.393 0 .031-.242.031-.54 0-.52-.052-.555-.043-.784.167-.242.218-.819 1.557-.717 1.657.026.027.198-.083.382-.24.26-.219.405-.285.638-.285.753 0 1.435.285 2.672 1.12.383.258.466.276.532.1.124-.319.044-.42-.567-.752-.542-.293-1.44-1.062-1.343-1.159.018-.017.19.01.379.057.303.083.356.075.427-.044a4.61 4.61 0 01.224-.323l.145-.188.313.157c.172.088.312.175.312.193 0 .017-.14.074-.308.118-.237.065-.32.131-.365.297-.044.18-.009.25.25.468.168.14.397.31.511.376.198.118.22.114.528-.153.177-.153.353-.275.392-.275.04 0 .172.127.295.284.22.276.225.302.136.691-.132.586-.198.674-.387.503-.083-.074-.185-.136-.229-.136-.074 0-.264.333-.264.464s1.365 1.212 1.475 1.168c.088-.035.114-.193.114-.639 0-.665.097-.765.295-.297.19.45.097 1.71-.167 2.283-.3.647-.62.538-.722-.236-.044-.341-.123-.52-.374-.836-.176-.218-.352-.398-.392-.398-.317 0 .405 2.56 1.105 3.902.436.84.59.984.638.603.048-.371.572-3.03.607-3.061.044-.044.093.148.207.778.101.573.115.512-.51 2.248-.159.433-.286.8-.286.81 0 .008-.036.021-.08.021-.044 0-.308-.345-.594-.77a12.263 12.263 0 00-1.003-1.285c-.326-.341-.625-.779-.894-1.3C79.67 38.01 78.846 37 78.613 37c-.133 0-1.092 1.4-1.03 1.5.026.04.33.096.682.127l.638.057.858 1.434c1.056 1.759 1.954 3.28 2.064 3.495.053.1.062.39.03.752l-.052.59-.176-.459a6.755 6.755 0 00-.546-1.027c-.436-.674-1.905-2.633-2.029-2.712-.048-.03-.317.17-.598.45-.423.416-.506.538-.467.691l-.026-.035zm17.124 6.372l-.63-.275-.523.354c-.29.192-.92.625-1.4.958-1.795 1.242-1.958 1.351-2.248 1.526-.44.263-.665.223-.854-.131-.11-.21-.106-.223.101-.328.194-.096.057-.114-1.298-.158-.832-.026-2.465-.052-3.627-.06l-2.112-.01-.3.202c-.162.109-.299.161-.299.118 0-.127-.18-.092-.396.074-.11.083-.224.158-.26.158-.167.004.018-.263.82-1.155.624-.7.945-1.133 1.113-1.505.308-.678.303-.787-.04-.931-.154-.066-.277-.14-.277-.166 0-.092.493-.761.585-.796.093-.035 6.4-.928 7.218-1.024.242-.026.686-.1.994-.158a7.73 7.73 0 01.982-.126l.422-.022.383.721a11.083 11.083 0 001.818 2.463c.273.28.488.516.475.53-.013.012-.304-.101-.651-.255l.004-.004zm.819-5.73c-.15 0-.198-.153-.278-.804-.048-.411-.04-.446.124-.499.097-.03.198-.03.224 0 .026.026.053.332.057.678 0 .538-.013.63-.127.63v-.005zm6.909.595c-.387 1.164-1.038 1.942-2.011 2.393-.678.315-1.694.34-2.399.065-.761-.297-1.778-1.11-1.65-1.32.075-.119.163-.084.647.244.656.447 1.36.617 2.046.503.287-.048.683-.17.885-.27.528-.263 1.118-.884 1.413-1.488.215-.446.255-.63.286-1.281.031-.705-.044-1.164-.273-1.71-.026-.062.092-.158.304-.245.699-.298.664-.307.831.245.234.774.198 2.05-.07 2.869l-.009-.005zm1.536-8.773c.577.096 1.505.865 1.721 1.421.075.192.114.372.092.394-.022.021-.242-.184-.488-.455a7.288 7.288 0 00-.854-.814c-.823-.634-.788-.599-.471-.542v-.005zm1.54 10.492a31.881 31.881 0 00-.387-.91c-.189-.424-.312-.77-.277-.77.088 0 .502.539.616.81.053.118.119.393.145.612.053.39-.004.538-.101.263l.004-.005zm.872-2.48c-.035 0-.185-.245-.33-.542a5.487 5.487 0 00-.744-1.063c-.264-.289-.44-.53-.387-.53.198 0 .559.25.876.613.418.473.523.674.594 1.15.03.206.026.372-.009.372zm-.563-3.923c-.361-.407-.876-.888-1.14-1.076-.511-.359-.515-.437-.014-.306.414.11 1.642 1.238 1.77 1.627.18.542.03.481-.621-.25l.005.005z" fill="#fff"/><path d="M77.1 24c.066.027.37.124.679.221 1.133.353 2.23 1.001 5.463 3.232 1.816 1.257 3.386 2.28 3.55 2.324.1.026.339.013.528-.022.388-.08.397-.115.27-.922l-.063-.379h.31c.246 0 .466.106 1.066.498.419.274 1.129.741 1.587 1.037.794.515.966.604.966.485 0-.031-.128-.424-.287-.873l-.286-.816-1.768-.736c-1.61-.67-2.946-1.226-4.118-1.711-.243-.097-.887-.366-1.438-.596-3.545-1.468-3.96-1.604-5.265-1.763-.74-.088-1.441-.08-1.194.018V24zm23.739 10.927c.194-.503.26-.763.203-.803-.049-.03-1.19-.136-2.544-.238l-4.516-.335a112.599 112.599 0 00-2.248-.154h-.194l.176-.185c.097-.102.203-.172.238-.155.031.018.19-.07.344-.19.274-.206.322-.215 1.098-.198.445.01 1.781.071 2.968.133 1.186.062 2.31.114 2.5.114.308 0 .357.027.436.239.049.132.137.238.19.238.088 0 .582-.948.582-1.116 0-.035-.331-.088-.737-.115-1.565-.101-6.927-.29-6.997-.25-.04.026-.132.224-.207.449-.168.511-.243.454-.124-.093.049-.23.062-.445.027-.48-.036-.036-.525-.102-1.094-.15-1.071-.093-1.16-.075-1.164.238 0 .066-.075.855-.163 1.755-.362 3.703-.348 3.452-.194 3.562.075.058.172.11.212.124.04.013.017.286-.053.608-.181.869-.172.93.172 1.036.198.062.326.067.392.01.053-.045.322-.464.595-.927.57-.965.587-.771-.154-1.825l-.428-.609.181-.93c.216-1.115.273-1.292.432-1.292.154 0 .154.031-.075 1.067-.106.476-.167.926-.14.997.11.3.828 1.446.903 1.446.044 0 .295-.445.556-.992l.476-.992.736.048c.406.027 1.438.106 2.293.177l1.556.127.058.318c.035.19.022.388-.031.494-.075.154.03.37.855 1.737.326.542.609 1.032.763 1.323l1.843-3.47c.035-.115.141-.41.273-.75l.005.009zm-27.293 3.011c-1.076.494-2.112 2.47-2.364 4.511-.273 2.218.278 4.268 1.323 4.925.19.12.357.146.767.128.454-.022.573-.062.926-.322.406-.295.89-.9.803-.992-.027-.026-.155-.004-.287.049-.313.132-.604-.01-.9-.437-1.102-1.591-.242-6.102 1.165-6.102.49 0 .837.467 1.089 1.455.132.529.26.392.198-.207-.247-2.328-1.406-3.612-2.712-3.012l-.008.005z" fill="#fff"/><path d="M75.728 41.669c-.207-.128-.507.123-.736.621-.19.42-.375.552-.494.358-.026-.045-.119-.062-.203-.036-.114.036-.154.01-.154-.105 0-.177-.199-.37-.309-.3-.04.026-.057.18-.035.344.03.246 0 .33-.168.493-.264.247-.26.314.027.415.128.044.251.159.278.256.03.114.225.264.547.427.612.309 1 .335 1.238.084.552-.586.556-2.222.005-2.557h.004zm-1.115-6.076c-.366-.203-.512-.238-1.028-.238-.515 0-.661.035-1.036.238-.64.348-1.336 1.089-1.772 1.882-.208.375-.397.785-.432.913a2.432 2.432 0 01-.168.454c-.26.516-.45 1.75-.459 3.012-.004.679.022 1.406.058 1.614.035.207.092.379.128.379.035 0 .101-.441.15-.979.097-1.063.3-1.931.656-2.826.666-1.667 1.98-2.897 3.1-2.897 1.036 0 2.046.935 2.566 2.372.097.273.212.498.247.498.252 0-.194-1.962-.648-2.87-.379-.754-.82-1.257-1.367-1.557l.005.005zM51.39 41.325c-1.403 1.027-2.104 5.754-1.293 8.743.282 1.037.772 1.843 1.235 2.029.26.101.736-.018.974-.243.344-.326.697-.86.754-1.137l.049-.243-.357.357c-.48.48-.759.49-1.186.04-.234-.243-.362-.494-.547-1.076-.776-2.42-.291-6.394.908-7.447.415-.362.63-.335 1.094.145.458.476.507.353.14-.379-.475-.948-1.146-1.248-1.772-.79z" fill="#fff"/><path d="M52.862 46.501c-.097.225-.212.278-.296.141-.026-.044-.092-.057-.15-.035-.057.022-.145-.053-.198-.167-.119-.265-.251-.186-.251.154 0 .145-.053.309-.12.366-.167.14-.15.3.045.361.092.031.19.12.22.203.031.084.216.238.415.349.238.132.463.194.674.185.265-.014.34-.058.472-.282.216-.366.27-1.235.106-1.632-.216-.52-.6-.37-.913.357h-.004z" fill="#fff"/><path d="M52.518 42.895c-.467 0-.882.604-1.23 1.794-.203.701-.384 2.041-.3 2.253.066.177.137.018.37-.82.278-1 .693-1.878 1.01-2.147.309-.26.419-.26.617-.01.137.177.212.42.384 1.227.026.128.066.163.119.11.115-.115-.062-1.327-.264-1.799-.186-.432-.397-.613-.706-.613v.005zm21.27-24.653c-.308-.04-1.42-.202-2.473-.357a130.84 130.84 0 00-1.976-.282c-.11 0-.008 1.129.141 1.574.044.128.437.128 2.884-.017 5.154-.31 4.912-.287 4.797-.406-.04-.04-1.375-.243-3.368-.512h-.005zm31.196 8.343c-.265.225-1.103.793-2.796 1.922a247.545 247.545 0 01-2.006 1.327c-.062.036-.11-.075-.141-.326-.027-.207-.141-.952-.247-1.653-.106-.701-.287-1.87-.397-2.593-.212-1.398-.265-1.517-.74-1.645-.027-.009-.058-.017-.089-.035a.645.645 0 01-.159-.084s-.03-.004-.097-.017c-.079-.01-.163-.018-.242-.031 0 .009.009.022.013.035v.009c.097.167.137.666.168 1.243.017.168.026.313.022.402 0 .008 0 .017-.005.026 0 0-.004 0-.004.004l-.018.014h-.379c-.03 0-.057 0-.093-.005-.057 0-.123-.009-.19-.013h-.004c-.035 0-.066-.005-.105-.009a7.13 7.13 0 01-.265-.022h-.017c-.045 0-.084-.009-.137-.009-.075-.004-.15-.013-.234-.017-.084-.01-.172-.014-.264-.022-.666-.053-1.13-.062-1.173-.018-.04.04-.115.353-.168.697-.075.515-.075.639.018.723.075.066.621.132 1.618.194.829.053 1.539.11 1.574.136.04.022.07.11.07.199 0 .198.11.203-3.47-.044-4.307-.3-3.91-.247-4.1-.543-.212-.33-.19-.335 1.124-.18.582.066 1.076.105 1.098.079.053-.053-.194-1.01-.335-1.3l-.101-.212-1.323-.022-1.323-.023-.736-.934c-1.098-1.39-1.129-1.336-.287.445.327.688.913 1.931 1.3 2.765.689 1.472.715 1.512.984 1.57.15.03 1.874.167 3.827.308 1.954.137 3.585.26 3.63.273.079.027.317.596.264.644-.014.013-1.266-.057-2.778-.159-3.946-.264-5.027-.313-5.027-.22 0 .123.38.957.459 1.005.07.044 1.922.159 4.727.291.943.044 1.957.102 2.253.128l.538.049v-.27c0-.29-.053-.37.802 1.17.401.718.459.594.3-.623-.062-.476-.07-.731-.018-.75.045-.012 1.05-.67 2.231-1.459 1.182-.789 2.192-1.433 2.245-1.433.048 0 .264.163.48.358l.388.357-.441.4a70.34 70.34 0 01-1.953 1.637c-1.058.86-1.583 1.34-1.733 1.591-.119.199-.185.38-.141.406.066.04 2.562-2.01 4.564-3.743.383-.331.56-.441.692-.547l-1.623-1.446h-.03zm-45.513 6.093l1.015.089c.379.03.723.074.908.105l1.111.075a.744.744 0 01.23-.022c.176 0 .317-.035.317-.075 0-.04-.216-.419-.48-.837l-.482-.763.485-.653c.389-.52.481-.7.46-.9l-.023-.246-1.953.022c-2.602.03-8.007.18-8.051.22-.084.084.127.128 1.278.274 1.931.238 2.037.269 2.31.705a2.2 2.2 0 01.181.326l.551.538c.186.093.587.304 1.041.547l1.098.595h.004zm18.506-12.813a139.13 139.13 0 011.914-.436c.643-.133 5.798.136 10.97.573 2.02.172 2.557.238 5.066.635.855.136 2.231.348 3.06.476.825.123 1.521.247 1.543.264.022.022-.405.274-.952.565a13.06 13.06 0 01-1.045.507l.6.547s.017-.01.035-.014c.758-.264 3.302-1.508 3.624-1.772.11-.088.181-.18.159-.203-.049-.049-2.311-.344-7.659-1.01l-2.83-.352c-2.417-.305-3.643-.424-5.746-.56-1.054-.067-3.016-.199-4.365-.287l-2.452-.163-.582.167c-.82.239-2.777.904-3.92 1.332-.308.115-.586.207-.833.278l.437.137.621-.142c.441-.097 1.5-.344 2.355-.542zm-25.578 7.619c.322.234.357.291.406.688.03.238.097.472.145.511.084.071 8.219-.088 9.123-.176.26-.026.34-.004.34.084 0 .066.044.101.092.084.053-.018.163-.291.247-.609.035-.136.075-.255.106-.352l-1.94-.922c-.349.035-1.376.07-2.597.097-5.018.097-6.284.146-6.284.247 0 .053.16.207.353.348h.009z" fill="#fff"/></svg>