<svg width="44" height="44" fill="none" xmlns="http://www.w3.org/2000/svg"><path fill-rule="evenodd" clip-rule="evenodd" d="M16.2 2.795a1.5 1.5 0 01-.86 1.94 18.67 18.67 0 00-.838.347 1.5 1.5 0 11-1.218-2.742 21.5 21.5 0 01.976-.404 1.5 1.5 0 011.94.86zM9.294 6.481a1.5 1.5 0 01-.051 2.12c-.22.21-.434.423-.643.643a1.5 1.5 0 01-2.172-2.07c.242-.254.491-.503.746-.745a1.5 1.5 0 012.12.052zM4.32 12.522a1.5 1.5 0 01.762 1.98 18.67 18.67 0 00-.347.838 1.5 1.5 0 01-2.8-1.08c.128-.33.263-.655.405-.976a1.5 1.5 0 011.98-.762zm-2.278 7.486a1.5 1.5 0 011.464 1.536 18.889 18.889 0 000 .912 1.5 1.5 0 11-3 .073 21.884 21.884 0 010-1.058 1.5 1.5 0 011.536-1.463zm39.163 7.793a1.5 1.5 0 01.86 1.94c-.128.329-.263.654-.405.975a1.5 1.5 0 01-2.742-1.218c.122-.276.238-.555.347-.838a1.5 1.5 0 011.94-.86zm-38.41 0a1.5 1.5 0 011.94.859c.109.283.225.562.347.838a1.5 1.5 0 11-2.742 1.218 21.368 21.368 0 01-.404-.976 1.5 1.5 0 01.86-1.94zm34.724 6.904a1.5 1.5 0 01.052 2.12 21.59 21.59 0 01-.746.746 1.5 1.5 0 01-2.069-2.172c.22-.21.434-.423.643-.643a1.5 1.5 0 012.12-.051zm-31.038 0a1.5 1.5 0 012.12.051c.21.22.423.434.643.643a1.5 1.5 0 11-2.07 2.172 21.564 21.564 0 01-.745-.746 1.5 1.5 0 01.052-2.12zm6.041 4.975a1.5 1.5 0 011.98-.762c.276.122.555.238.838.347a1.5 1.5 0 01-1.08 2.8c-.33-.128-.655-.263-.976-.405a1.5 1.5 0 01-.762-1.98zm18.956 0a1.5 1.5 0 01-.762 1.98 21.5 21.5 0 01-.976.404 1.5 1.5 0 01-1.08-2.799c.283-.109.562-.225.838-.347a1.5 1.5 0 011.98.762zm-11.47 2.278a1.5 1.5 0 011.536-1.463 18.685 18.685 0 00.912 0 1.5 1.5 0 11.073 2.999 21.605 21.605 0 01-1.058 0 1.5 1.5 0 01-1.463-1.536zM22 3.5c10.217 0 18.5 8.283 18.5 18.5a1.5 1.5 0 003 0C43.5 10.126 33.874.5 22 .5a1.5 1.5 0 000 3zm0 11a1.5 1.5 0 011.5 1.5v6.5H30a1.5 1.5 0 010 3h-8a1.5 1.5 0 01-1.5-1.5v-8a1.5 1.5 0 011.5-1.5z" fill="#E67205"/></svg>