<svg width="48" height="48" fill="none" xmlns="http://www.w3.org/2000/svg"><path fill-rule="evenodd" clip-rule="evenodd" d="M37 28c-3.866 0-7 2.917-7 6.515 0 3.57 2.234 7.735 5.72 9.225a3.277 3.277 0 002.56 0c3.486-1.49 5.72-5.656 5.72-9.225C44 30.917 40.866 28 37 28zm0 9a2 2 0 100-4 2 2 0 000 4zM11 4c-3.866 0-7 2.917-7 6.515 0 3.57 2.234 7.735 5.72 9.225a3.277 3.277 0 002.56 0c3.486-1.49 5.72-5.656 5.72-9.225C18 6.917 14.866 4 11 4zm0 9a2 2 0 100-4 2 2 0 000 4zm11.5-3A1.5 1.5 0 0124 8.5h8.264c5.502 0 7.595 7.186 2.953 10.14L14.394 31.89c-2.11 1.344-1.159 4.61 1.342 4.61h4.643l-.44-.44a1.5 1.5 0 012.122-2.12l3 3a1.5 1.5 0 010 2.12l-3 3a1.5 1.5 0 01-2.122-2.12l.44-.44h-4.643c-5.502 0-7.595-7.186-2.953-10.14l20.823-13.25c2.11-1.344 1.159-4.61-1.342-4.61H24a1.5 1.5 0 01-1.5-1.5z" fill="#E67205"/></svg>