<svg width="40" height="40" fill="none" xmlns="http://www.w3.org/2000/svg"><path d="M0 4a4 4 0 115.5 3.71V18.5h13V7.71A4.001 4.001 0 0120 0a4 4 0 011.5 7.71V18.5H28c1.928 0 3.223-.003 4.19-.133.922-.124 1.317-.339 1.578-.6.26-.26.475-.655.599-1.578.13-.966.133-2.261.133-4.189V7.71A4.001 4.001 0 0136 0a4 4 0 011.5 7.71v4.394c0 1.797 0 3.295-.16 4.485-.169 1.256-.54 2.39-1.45 3.3-.912.911-2.046 1.282-3.301 1.451-1.19.16-2.688.16-4.485.16H21.5v10.79a4.001 4.001 0 11-3 0V21.5h-13v10.79a4.001 4.001 0 11-3 0V7.71A4.001 4.001 0 010 4z" fill="#E67205"/></svg>