<svg width="48" height="48" fill="none" xmlns="http://www.w3.org/2000/svg"><path d="M24 20a8 8 0 100-16 8 8 0 000 16z" fill="#E67205"/><path d="M5.456 11.636a1.5 1.5 0 10-2.91.728l.763 3.055A16.418 16.418 0 0014.5 27.157v8.947c0 1.797 0 3.295.16 4.485.169 1.255.54 2.389 1.451 3.3.911.91 2.045 1.282 3.3 1.451 1.19.16 2.688.16 4.485.16h.208c1.797 0 3.296 0 4.485-.16 1.256-.169 2.39-.54 3.3-1.451.911-.911 1.283-2.045 1.451-3.3.16-1.19.16-2.688.16-4.485v-8.386a5.25 5.25 0 013.712 4.416l1.299 11.041a1.5 1.5 0 102.98-.35l-1.3-11.042a8.247 8.247 0 00-8.19-7.283H16.168a13.418 13.418 0 01-9.95-9.808l-.763-3.056z" fill="#E67205"/></svg>