<svg width="36" height="40" fill="none" xmlns="http://www.w3.org/2000/svg"><path d="M16.5.147c-1.213.226-2.637.714-4.825 1.463l-1.145.392C4.517 4.06 1.51 5.089.755 6.165.016 7.217 0 10.3 0 16.419l16.5-5.5V.147zm0 13.934L0 19.581v.402C0 31.259 8.478 36.73 13.797 39.055c1.022.446 1.681.734 2.703.864V14.081zm3 25.839V14.08l16.5 5.5v.402c0 11.276-8.478 16.748-13.797 19.072-1.022.446-1.681.734-2.703.864zm0-29.001V.147c1.212.226 2.637.714 4.825 1.463l1.145.392c6.013 2.058 9.02 3.087 9.775 4.163.739 1.052.755 4.135.755 10.254l-16.5-5.5z" fill="#E67205"/></svg>