<svg width="48" height="48" fill="none" xmlns="http://www.w3.org/2000/svg"><circle cx="24" cy="12" r="8" fill="#E67205"/><path fill-rule="evenodd" clip-rule="evenodd" d="M33 44c-3.3 0-4.95 0-5.975-1.025C26 41.95 26 40.3 26 37s0-4.95 1.025-5.975C28.05 30 29.7 30 33 30s4.95 0 5.975 1.025C40 32.05 40 33.7 40 37s0 4.95-1.025 5.975C37.95 44 36.3 44 33 44zm3.936-8.508a1.167 1.167 0 00-1.65-1.65l-3.842 3.841-.73-.73a1.167 1.167 0 00-1.65 1.65l1.555 1.555a1.167 1.167 0 001.65 0l4.667-4.666z" fill="#E67205"/><path d="M30.83 27.015C28.81 26.369 26.48 26 24 26c-7.732 0-14 3.582-14 8 0 4.281 5.885 7.777 13.284 7.99a9.74 9.74 0 01-.13-.75C23 40.085 23 38.673 23 37.172v-.344c0-1.501 0-2.913.155-4.068.173-1.286.586-2.693 1.749-3.856 1.163-1.163 2.57-1.576 3.856-1.75a19.268 19.268 0 012.07-.14z" fill="#E67205"/></svg>